<svg width="2735" height="477" viewBox="0 0 2735 477" fill="none" xmlns="http://www.w3.org/2000/svg">
<path d="M678.381 295.153V335.11C672.878 337.972 667.264 339.954 661.54 341.054C656.036 342.375 649.872 343.036 643.047 343.036C631.159 343.036 620.702 340.834 611.676 336.431C602.87 331.808 596.045 324.983 591.202 315.957C586.359 306.711 583.937 295.594 583.937 282.605V202.69H548.273V163.394H583.937V111.218H629.508V163.394H680.032V202.69H629.508V272.038C629.508 282.164 631.71 289.539 636.113 294.163C640.736 298.566 647.12 300.767 655.266 300.767C659.669 300.767 663.851 300.327 667.814 299.446C671.777 298.345 675.299 296.914 678.381 295.153Z" fill="#fff"/>
<path d="M782.359 342.705C764.747 342.705 749.226 338.963 735.797 331.478C722.588 323.773 712.351 312.985 705.086 299.116C697.821 285.246 694.189 269.175 694.189 250.903C694.189 233.291 697.932 217.66 705.417 204.011C712.902 190.362 723.249 179.685 736.458 171.979C749.667 164.054 764.747 160.091 781.698 160.091C795.568 160.091 808.116 162.733 819.344 168.017C830.792 173.08 840.368 180.345 848.074 189.812C855.779 199.278 861.282 210.285 864.585 222.834C867.887 235.162 868.437 248.481 866.236 262.791H721.267V233.731H817.693C817.253 221.403 813.62 211.716 806.795 204.672C800.191 197.407 791.495 193.774 780.708 193.774C772.122 193.774 764.857 195.976 758.913 200.379C752.969 204.782 748.346 211.276 745.044 219.862C741.961 228.228 740.42 238.575 740.42 250.903C740.42 263.011 741.961 273.248 745.044 281.614C748.126 289.98 752.749 296.364 758.913 300.767C765.077 305.17 772.562 307.371 781.368 307.371C791.495 307.371 799.861 304.95 806.465 300.106C813.07 295.263 817.693 288.549 820.335 279.963H865.906C860.842 299.776 851.046 315.187 836.516 326.194C821.986 337.202 803.934 342.705 782.359 342.705Z" fill="#fff"/>
<path d="M1046.68 283.265C1046.68 301.537 1039.85 316.067 1026.2 326.855C1012.78 337.642 993.512 343.036 968.415 343.036C943.538 343.036 924.055 337.422 909.965 326.194C896.096 314.746 888.28 299.226 886.519 279.633H930.439C930.659 288.659 934.292 295.924 941.337 301.427C948.601 306.711 957.848 309.353 969.075 309.353C978.102 309.353 985.587 307.922 991.531 305.06C997.475 301.978 1000.45 297.355 1000.45 291.19C1000.45 285.687 998.575 281.504 994.833 278.642C991.09 275.78 984.926 273.578 976.34 272.037L944.639 266.093C928.788 263.231 916.35 257.507 907.323 248.922C898.297 240.336 893.784 229.218 893.784 215.569C893.784 204.562 896.756 194.875 902.7 186.509C908.644 178.144 917.01 171.649 927.797 167.026C938.585 162.403 951.243 160.091 965.773 160.091C980.523 160.091 993.512 162.623 1004.74 167.686C1016.19 172.53 1025.21 179.575 1031.82 188.821C1038.64 198.067 1042.61 208.965 1043.71 221.513H999.786C999.126 212.927 995.713 206.213 989.549 201.369C983.385 196.306 975.46 193.774 965.773 193.774C957.407 193.774 950.583 195.315 945.299 198.397C940.236 201.259 937.704 205.552 937.704 211.276C937.704 216.56 939.575 220.522 943.318 223.164C947.06 225.586 952.894 227.567 960.82 229.108L994.833 235.382C1012 238.685 1024.88 244.299 1033.47 252.224C1042.28 260.149 1046.68 270.496 1046.68 283.265Z" fill="#fff"/>
<path d="M1368.41 283.265C1368.41 301.537 1361.58 316.067 1347.93 326.855C1334.5 337.642 1315.24 343.036 1290.14 343.036C1265.27 343.036 1245.78 337.422 1231.69 326.194C1217.82 314.746 1210.01 299.226 1208.25 279.633H1252.17C1252.39 288.659 1256.02 295.924 1263.06 301.427C1270.33 306.711 1279.57 309.353 1290.8 309.353C1299.83 309.353 1307.31 307.922 1313.26 305.06C1319.2 301.978 1322.17 297.355 1322.17 291.19C1322.17 285.687 1320.3 281.504 1316.56 278.642C1312.82 275.78 1306.65 273.578 1298.07 272.037L1266.37 266.093C1250.52 263.231 1238.08 257.507 1229.05 248.922C1220.02 240.336 1215.51 229.218 1215.51 215.569C1215.51 204.562 1218.48 194.875 1224.43 186.509C1230.37 178.144 1238.74 171.649 1249.52 167.026C1260.31 162.403 1272.97 160.091 1287.5 160.091C1302.25 160.091 1315.24 162.623 1326.47 167.686C1337.91 172.53 1346.94 179.575 1353.55 188.821C1360.37 198.067 1364.33 208.965 1365.43 221.513H1321.51C1320.85 212.927 1317.44 206.213 1311.28 201.369C1305.11 196.306 1297.19 193.774 1287.5 193.774C1279.13 193.774 1272.31 195.315 1267.03 198.397C1261.96 201.259 1259.43 205.552 1259.43 211.276C1259.43 216.56 1261.3 220.522 1265.04 223.164C1268.79 225.586 1274.62 227.567 1282.55 229.108L1316.56 235.382C1333.73 238.685 1346.61 244.299 1355.2 252.224C1364 260.149 1368.41 270.496 1368.41 283.265Z" fill="#890EEB"/>
<path d="M1570.48 251.563C1570.48 268.955 1567.18 284.586 1560.58 298.455C1554.19 312.105 1545.17 323.002 1533.5 331.148C1522.05 339.073 1508.29 343.036 1492.22 343.036C1481.87 343.036 1472.3 340.834 1463.49 336.431C1454.68 332.028 1446.98 325.534 1440.38 316.948V403.467H1394.47V163.394H1436.74V189.151C1443.57 179.685 1451.71 172.53 1461.18 167.686C1470.65 162.623 1480.99 160.091 1492.22 160.091C1508.07 160.091 1521.83 164.164 1533.5 172.31C1545.17 180.235 1554.19 191.132 1560.58 205.002C1567.18 218.651 1570.48 234.172 1570.48 251.563ZM1523.26 251.563C1523.26 235.052 1519.19 222.504 1511.04 213.918C1502.9 205.112 1493.21 200.709 1481.98 200.709C1474.72 200.709 1467.89 202.69 1461.51 206.653C1455.13 210.616 1450.06 216.34 1446.32 223.825C1442.58 231.09 1440.71 240.336 1440.71 251.563C1440.71 262.571 1442.58 271.927 1446.32 279.633C1450.06 287.118 1455.02 292.731 1461.18 296.474C1467.56 300.217 1474.5 302.088 1481.98 302.088C1493.21 302.088 1502.9 297.905 1511.04 289.539C1519.19 280.953 1523.26 268.295 1523.26 251.563Z" fill="#fff"/>
<path d="M1645.71 339.733H1599.47V102.632H1645.71V339.733Z" fill="#fff"/>
<path d="M1794.49 339.733V317.939C1788.76 326.084 1781.5 332.358 1772.69 336.761C1763.88 340.944 1753.43 343.036 1741.32 343.036C1723.05 343.036 1708.3 338.082 1697.07 328.176C1685.84 318.269 1680.23 305.06 1680.23 288.549C1680.23 271.377 1687.05 258.278 1700.7 249.252C1714.35 240.226 1733.94 235.713 1759.48 235.713C1764.54 235.713 1769.39 235.933 1774.01 236.373C1778.63 236.593 1783.59 237.034 1788.87 237.694V227.127C1788.87 217.22 1786.23 209.515 1780.95 204.011C1775.66 198.507 1768.18 195.756 1758.49 195.756C1748.58 195.756 1740.77 198.507 1735.04 204.011C1729.32 209.515 1726.02 217.22 1725.14 227.127H1683.86C1684.74 213.478 1688.37 201.7 1694.76 191.793C1701.36 181.666 1710.06 173.851 1720.85 168.347C1731.85 162.843 1744.4 160.091 1758.49 160.091C1781.61 160.091 1799.55 166.145 1812.32 178.254C1825.31 190.362 1831.8 207.203 1831.8 228.778V339.733H1794.49ZM1723.49 287.228C1723.49 294.493 1725.91 300.327 1730.75 304.73C1735.82 309.133 1742.64 311.334 1751.23 311.334C1762.89 311.334 1772.03 308.362 1778.63 302.418C1785.46 296.254 1788.87 288.108 1788.87 277.981V265.433C1783.59 264.552 1778.85 264.002 1774.67 263.782C1770.49 263.341 1766.42 263.121 1762.45 263.121C1749.68 263.121 1740 265.103 1733.39 269.065C1726.79 273.028 1723.49 279.082 1723.49 287.228Z" fill="#fff"/>
<path d="M1978.11 295.153V335.11C1972.6 337.972 1966.99 339.954 1961.27 341.054C1955.76 342.375 1949.6 343.036 1942.77 343.036C1930.89 343.036 1920.43 340.834 1911.4 336.431C1902.6 331.808 1895.77 324.983 1890.93 315.957C1886.09 306.711 1883.66 295.594 1883.66 282.605V202.69H1848V163.394H1883.66V111.218H1929.24V163.394H1979.76V202.69H1929.24V272.038C1929.24 282.164 1931.44 289.539 1935.84 294.163C1940.46 298.566 1946.85 300.767 1954.99 300.767C1959.4 300.767 1963.58 300.327 1967.54 299.446C1971.5 298.345 1975.03 296.914 1978.11 295.153Z" fill="#fff"/>
<path d="M2078.89 339.734H2033.32V202.69H1997.65V163.394H2033.32V153.817C2033.32 136.205 2037.94 122.666 2047.18 113.2C2056.65 103.733 2070.52 99 2088.79 99C2094.52 99 2099.69 99.5504 2104.31 100.651C2109.16 101.532 2113.45 102.743 2117.19 104.284V140.608C2114.77 139.508 2112.02 138.737 2108.94 138.297C2105.85 137.856 2102.77 137.636 2099.69 137.636C2093.53 137.636 2088.46 138.957 2084.5 141.599C2080.76 144.241 2078.89 148.644 2078.89 154.808V163.394H2124.79V202.69H2078.89V339.734Z" fill="#fff"/>
<path d="M2217.41 343.036C2204.64 343.036 2192.75 340.724 2181.74 336.101C2170.96 331.478 2161.49 324.983 2153.34 316.618C2145.42 308.252 2139.14 298.565 2134.52 287.558C2130.12 276.33 2127.92 264.332 2127.92 251.563C2127.92 238.575 2130.12 226.576 2134.52 215.569C2139.14 204.562 2145.42 194.875 2153.34 186.509C2161.49 178.144 2170.96 171.649 2181.74 167.026C2192.75 162.403 2204.64 160.091 2217.41 160.091C2230.18 160.091 2241.95 162.403 2252.74 167.026C2263.75 171.649 2273.21 178.144 2281.14 186.509C2289.29 194.875 2295.56 204.562 2299.96 215.569C2304.59 226.576 2306.9 238.575 2306.9 251.563C2306.9 264.332 2304.59 276.33 2299.96 287.558C2295.56 298.565 2289.29 308.252 2281.14 316.618C2273.21 324.983 2263.75 331.478 2252.74 336.101C2241.95 340.724 2230.18 343.036 2217.41 343.036ZM2217.41 302.418C2225.11 302.418 2232.16 300.437 2238.54 296.474C2244.93 292.511 2249.99 286.787 2253.73 279.302C2257.69 271.597 2259.68 262.351 2259.68 251.563C2259.68 240.556 2257.69 231.31 2253.73 223.825C2249.99 216.34 2244.93 210.726 2238.54 206.983C2232.16 203.02 2225.11 201.039 2217.41 201.039C2209.92 201.039 2202.88 203.02 2196.27 206.983C2189.89 210.726 2184.71 216.34 2180.75 223.825C2177.01 231.31 2175.14 240.556 2175.14 251.563C2175.14 262.351 2177.01 271.597 2180.75 279.302C2184.71 286.787 2189.89 292.511 2196.27 296.474C2202.88 300.437 2209.92 302.418 2217.41 302.418Z" fill="#fff"/>
<path d="M2379.38 254.205V339.733H2333.47V163.393H2375.74V197.407C2382.35 186.179 2391.92 177.373 2404.47 170.989C2417.02 164.604 2430.34 161.412 2444.43 161.412V208.964C2431.66 208.084 2420.32 208.744 2410.42 210.946C2400.73 212.927 2393.13 217.44 2387.63 224.485C2382.13 231.31 2379.38 241.216 2379.38 254.205Z" fill="#fff"/>
<path d="M2516.38 339.733H2470.47V163.394H2512.74V188.491C2519.13 179.464 2526.61 172.53 2535.2 167.686C2543.78 162.623 2553.91 160.091 2565.58 160.091C2577.69 160.091 2588.14 162.843 2596.95 168.347C2605.98 173.631 2612.69 181.336 2617.09 191.463C2624.14 181.776 2632.28 174.181 2641.53 168.677C2650.78 162.953 2662 160.091 2675.21 160.091C2693.05 160.091 2707.46 165.815 2718.47 177.263C2729.48 188.491 2734.98 204.672 2734.98 225.806V339.733H2689.41V240.336C2689.41 227.787 2686.77 218.101 2681.49 211.276C2676.42 204.231 2668.83 200.709 2658.7 200.709C2652.76 200.709 2647.25 202.36 2642.19 205.662C2637.13 208.744 2633.05 213.257 2629.97 219.201C2627.11 225.146 2625.68 232.521 2625.68 241.326V339.733H2580.11V240.336C2580.11 227.787 2577.47 218.101 2572.18 211.276C2567.12 204.231 2559.52 200.709 2549.4 200.709C2543.23 200.709 2537.62 202.36 2532.56 205.662C2527.49 208.744 2523.53 213.257 2520.67 219.201C2517.81 225.146 2516.38 232.521 2516.38 241.326V339.733Z" fill="#fff"/>
<path d="M1182.38 295.153V335.11C1176.88 337.972 1171.26 339.954 1165.54 341.054C1160.04 342.375 1153.87 343.036 1147.05 343.036C1135.16 343.036 1124.7 340.834 1115.68 336.431C1106.87 331.808 1100.05 324.983 1095.2 315.957C1090.36 306.711 1087.94 295.594 1087.94 282.605V202.69H1052.27V163.394H1087.94V111.218H1133.51V163.394H1184.03V202.69H1133.51V272.038C1133.51 282.164 1135.71 289.539 1140.11 294.163C1144.74 298.566 1151.12 300.767 1159.27 300.767C1163.67 300.767 1167.85 300.327 1171.81 299.446C1175.78 298.345 1179.3 296.914 1182.38 295.153Z" fill="#fff"/>
<circle cx="258" cy="362" r="115" fill="#C275FF"/>
<circle opacity="0.45" cx="298" cy="286" r="143" fill="#AF55F7"/>
<circle opacity="0.7" cx="288" cy="180" r="143" fill="#AF55F7"/>
<circle opacity="0.4" cx="186" cy="143" r="143" fill="#AF55F7"/>
<circle opacity="0.5" cx="143" cy="231" r="143" fill="#AF55F7"/>
<circle opacity="0.7" cx="180" cy="300" r="143" fill="#AF55F7"/>
<ellipse cx="239.182" cy="238.125" rx="158.182" ry="158.125" fill="#8D0EF1"/>
<ellipse cx="239.182" cy="238.125" rx="158.182" ry="158.125" fill="url(#paint0_radial_2176_77992)" fill-opacity="0.2"/>
<path fill-rule="evenodd" clip-rule="evenodd" d="M308.478 183.269C313.777 187.121 314.948 194.539 311.095 199.836L239.913 297.675C237.925 300.408 234.866 302.163 231.503 302.5C228.14 302.838 224.793 301.725 222.302 299.442L174.847 255.958C170.017 251.532 169.691 244.03 174.118 239.202C178.546 234.374 186.05 234.048 190.88 238.473L228.539 272.982L291.906 185.885C295.759 180.588 303.179 179.417 308.478 183.269Z" fill="white"/>
<defs>
<radialGradient id="paint0_radial_2176_77992" cx="0" cy="0" r="1" gradientUnits="userSpaceOnUse" gradientTransform="translate(239.182 238.125) rotate(90) scale(158.125 158.182)">
<stop stop-color="white" stop-opacity="0"/>
<stop offset="1" stop-color="white"/>
</radialGradient>
</defs>
</svg>
